<mxfile host="65bd71144e">
    <diagram id="8UtTZmWbgRumv9ED-oRE" name="Page-1">
        <mxGraphModel dx="1294" dy="924" grid="1" gridSize="10" guides="1" tooltips="1" connect="1" arrows="1" fold="1" page="1" pageScale="1" pageWidth="1169" pageHeight="1654" math="0" shadow="1">
            <root>
                <mxCell id="0"/>
                <mxCell id="1" parent="0"/>
                <mxCell id="2" value="&lt;b&gt;&lt;font style=&quot;font-size: 17px;&quot;&gt;Host Machine&lt;/font&gt;&lt;/b&gt;" style="rounded=0;whiteSpace=wrap;html=1;fillColor=#1ba1e2;fontColor=#ffffff;strokeColor=#D3F1F5;strokeWidth=3;" vertex="1" parent="1">
                    <mxGeometry x="360" y="238" width="440" height="80" as="geometry"/>
                </mxCell>
                <mxCell id="3" value="Nginx Container" style="rounded=0;whiteSpace=wrap;html=1;fontSize=12;fillColor=#69A360;" vertex="1" parent="1">
                    <mxGeometry x="359" y="423" width="160" height="120" as="geometry"/>
                </mxCell>
                <mxCell id="16" style="edgeStyle=none;html=1;exitX=1;exitY=0.5;exitDx=0;exitDy=0;entryX=0;entryY=0.5;entryDx=0;entryDy=0;fontSize=12;rounded=0;" edge="1" parent="1" source="4" target="5">
                    <mxGeometry relative="1" as="geometry"/>
                </mxCell>
                <mxCell id="4" value="PHP Container" style="rounded=0;whiteSpace=wrap;html=1;fontSize=12;fillColor=#76608a;fontColor=#ffffff;strokeColor=#F8F7FC;" vertex="1" parent="1">
                    <mxGeometry x="359" y="623" width="160" height="120" as="geometry"/>
                </mxCell>
                <mxCell id="5" value="MySQL Container" style="rounded=0;whiteSpace=wrap;html=1;fontSize=12;fillColor=#FF9933;fontColor=#ffffff;strokeColor=#F8F7FC;" vertex="1" parent="1">
                    <mxGeometry x="639" y="623" width="160" height="120" as="geometry"/>
                </mxCell>
                <mxCell id="14" value="" style="edgeStyle=none;html=1;fontSize=12;rounded=0;" edge="1" parent="1" source="6" target="5">
                    <mxGeometry relative="1" as="geometry"/>
                </mxCell>
                <mxCell id="6" value="PHPMyAdmin Container" style="rounded=0;whiteSpace=wrap;html=1;fontSize=12;fillColor=#A85B39;fontColor=#ffffff;strokeColor=#F0F7F7;" vertex="1" parent="1">
                    <mxGeometry x="639" y="423" width="160" height="120" as="geometry"/>
                </mxCell>
                <mxCell id="7" value="" style="endArrow=classic;html=1;exitX=0.5;exitY=0;exitDx=0;exitDy=0;rounded=0;" edge="1" parent="1" source="6">
                    <mxGeometry width="50" height="50" relative="1" as="geometry">
                        <mxPoint x="550" y="508" as="sourcePoint"/>
                        <mxPoint x="720" y="318" as="targetPoint"/>
                    </mxGeometry>
                </mxCell>
                <mxCell id="8" value="" style="endArrow=classic;html=1;exitX=0.5;exitY=0;exitDx=0;exitDy=0;rounded=0;" edge="1" parent="1" source="3">
                    <mxGeometry width="50" height="50" relative="1" as="geometry">
                        <mxPoint x="439.5" y="398" as="sourcePoint"/>
                        <mxPoint x="439.5" y="318" as="targetPoint"/>
                    </mxGeometry>
                </mxCell>
                <mxCell id="9" value="podman:&amp;lt;phpmyadmin port&amp;gt;" style="text;html=1;strokeColor=none;fillColor=none;align=center;verticalAlign=middle;whiteSpace=wrap;rounded=0;" vertex="1" parent="1">
                    <mxGeometry x="621" y="288" width="179" height="30" as="geometry"/>
                </mxCell>
                <mxCell id="11" value="podman:&amp;lt;app port&amp;gt;" style="text;html=1;strokeColor=none;fillColor=none;align=center;verticalAlign=middle;whiteSpace=wrap;rounded=0;" vertex="1" parent="1">
                    <mxGeometry x="370" y="288" width="140" height="30" as="geometry"/>
                </mxCell>
                <mxCell id="12" value="" style="endArrow=classic;html=1;exitX=0.5;exitY=1;exitDx=0;exitDy=0;fontSize=12;rounded=0;" edge="1" parent="1" source="3" target="4">
                    <mxGeometry width="50" height="50" relative="1" as="geometry">
                        <mxPoint x="549" y="523" as="sourcePoint"/>
                        <mxPoint x="599" y="473" as="targetPoint"/>
                    </mxGeometry>
                </mxCell>
                <mxCell id="13" value="port 9000" style="text;html=1;strokeColor=none;fillColor=none;align=center;verticalAlign=middle;whiteSpace=wrap;rounded=0;fontSize=12;" vertex="1" parent="1">
                    <mxGeometry x="439" y="573" width="60" height="30" as="geometry"/>
                </mxCell>
                <mxCell id="15" value="port 3306" style="text;html=1;strokeColor=none;fillColor=none;align=center;verticalAlign=middle;whiteSpace=wrap;rounded=0;fontSize=12;" vertex="1" parent="1">
                    <mxGeometry x="719" y="573" width="60" height="30" as="geometry"/>
                </mxCell>
                <mxCell id="17" value="port 3306" style="text;html=1;strokeColor=none;fillColor=none;align=center;verticalAlign=middle;whiteSpace=wrap;rounded=0;fontSize=12;" vertex="1" parent="1">
                    <mxGeometry x="543" y="683" width="60" height="30" as="geometry"/>
                </mxCell>
                <mxCell id="19" style="edgeStyle=none;html=1;entryX=0;entryY=0.5;entryDx=0;entryDy=0;exitX=0.5;exitY=1;exitDx=0;exitDy=0;fontSize=12;rounded=0;" edge="1" parent="1" source="22" target="4">
                    <mxGeometry relative="1" as="geometry">
                        <mxPoint x="269" y="613" as="sourcePoint"/>
                    </mxGeometry>
                </mxCell>
                <mxCell id="20" style="edgeStyle=none;html=1;exitX=0.5;exitY=0;exitDx=0;exitDy=0;entryX=0;entryY=0.5;entryDx=0;entryDy=0;fontSize=12;rounded=0;" edge="1" parent="1" source="22" target="3">
                    <mxGeometry relative="1" as="geometry">
                        <mxPoint x="261.03999999999996" y="533" as="sourcePoint"/>
                    </mxGeometry>
                </mxCell>
                <mxCell id="22" value="/var/www/html" style="shape=datastore;whiteSpace=wrap;html=1;fontSize=12;fillColor=#DE8E91;rounded=0;" vertex="1" parent="1">
                    <mxGeometry x="209" y="523" width="100" height="100" as="geometry"/>
                </mxCell>
                <mxCell id="23" value="Shared Volume&lt;br style=&quot;font-size: 12px;&quot;&gt;&quot;laragigs_volume&quot;" style="shape=note;strokeWidth=2;fontSize=12;size=20;whiteSpace=wrap;html=1;fillColor=#fff2cc;strokeColor=#d6b656;fontColor=#666600;rounded=0;" vertex="1" parent="1">
                    <mxGeometry x="179" y="433" width="140" height="50" as="geometry"/>
                </mxCell>
                <mxCell id="26" value="" style="endArrow=none;dashed=1;html=1;dashPattern=1 3;strokeWidth=2;exitX=0.5;exitY=1;exitDx=0;exitDy=0;exitPerimeter=0;fontSize=12;rounded=0;" edge="1" parent="1" source="23">
                    <mxGeometry width="50" height="50" relative="1" as="geometry">
                        <mxPoint x="549" y="543" as="sourcePoint"/>
                        <mxPoint x="249" y="523" as="targetPoint"/>
                    </mxGeometry>
                </mxCell>
                <mxCell id="27" value="Containers are connected through a&lt;br style=&quot;font-size: 12px;&quot;&gt;virtual network&lt;br style=&quot;font-size: 12px;&quot;&gt;&quot;laragigs_network&quot;" style="shape=note;strokeWidth=2;fontSize=12;size=20;whiteSpace=wrap;html=1;fillColor=#fff2cc;strokeColor=#d6b656;fontColor=#666600;rounded=0;" vertex="1" parent="1">
                    <mxGeometry x="840" y="523" width="170" height="107" as="geometry"/>
                </mxCell>
                <mxCell id="34" value="username: user&lt;br&gt;password: password" style="text;html=1;strokeColor=none;fillColor=none;align=left;verticalAlign=middle;whiteSpace=wrap;rounded=0;" vertex="1" parent="1">
                    <mxGeometry x="730" y="338" width="140" height="30" as="geometry"/>
                </mxCell>
                <mxCell id="35" value="" style="rounded=0;whiteSpace=wrap;html=1;fontSize=12;fillColor=none;strokeWidth=3;strokeColor=#FFFFFF;" vertex="1" parent="1">
                    <mxGeometry x="125" y="390" width="920" height="442" as="geometry"/>
                </mxCell>
                <mxCell id="37" value="&lt;b&gt;&lt;font style=&quot;font-size: 19px;&quot;&gt;Container's Network&lt;/font&gt;&lt;/b&gt;" style="text;html=1;strokeColor=none;fillColor=none;align=center;verticalAlign=middle;whiteSpace=wrap;rounded=0;fontSize=12;" vertex="1" parent="1">
                    <mxGeometry x="451.5" y="787" width="257" height="30" as="geometry"/>
                </mxCell>
            </root>
        </mxGraphModel>
    </diagram>
</mxfile>